<svg width="1208" height="947" viewBox="0 0 1208 947" fill="none" xmlns="http://www.w3.org/2000/svg">
<g filter="url(#filter0_d_2111_102)">
<path d="M23 62.1096C23 52.071 31.1378 43.9332 41.1763 43.9332H1166.82C1176.86 43.9332 1185 52.071 1185 62.1096V935.383H23V62.1096Z" fill="#1E0D37"/>
</g>
<path d="M553.981 44.1225H307.5C311.453 44.1225 320.205 39.2231 323.593 19.6257C326.981 0.0282291 344.768 1.0081 344.768 1.0081H508.242C525.182 1.0081 530.264 0.0282269 535.346 19.6257C539.412 35.3036 549.463 42.4894 553.981 44.1225Z" fill="url(#paint0_linear_2111_102)" stroke="url(#paint1_linear_2111_102)" stroke-width="0.56801"/>
<path d="M352.198 21.0774C351.85 18.5127 353.737 16.3031 356.328 16.2413L500.867 12.798C503.29 12.7403 505.431 14.5914 505.72 16.9921L509.021 44.4879L355.375 44.4879L352.198 21.0774Z" fill="#306EF9"/>
<path d="M379.768 35.9491L381.736 28.2796L383.697 28.2047L386.755 35.6822L385.335 35.7365L384.57 33.7379L381.674 33.8485L381.194 35.8946L379.768 35.9491ZM381.839 32.9266L384.273 32.8337L382.786 29.0484L382.769 29.049L381.839 32.9266ZM388.883 35.601L386.473 29.0368L387.899 28.9824L389.849 34.6485L389.86 34.6481L390.975 28.8649L392.401 28.8104L390.963 35.5216L388.883 35.601ZM387.475 38.2555L387.408 37.3256C388.084 37.2998 388.599 37.1715 388.951 36.9409C389.304 36.714 389.554 36.2551 389.7 35.5642L390.963 35.5216C390.734 36.5826 390.331 37.2945 389.754 37.6573C389.182 38.0199 388.422 38.2193 387.475 38.2555ZM397.368 35.277L396.824 27.7147L400.887 27.5596C401.691 27.5289 402.216 27.6886 402.464 28.0386C402.711 28.3849 402.851 28.7821 402.883 29.2303C402.916 29.6971 402.844 30.1043 402.666 30.4519C402.487 30.7957 402.197 30.9846 401.797 31.0187C402.219 31.025 402.565 31.199 402.834 31.5407C403.104 31.8787 403.258 32.3241 403.298 32.8768C403.343 33.5004 403.269 34.0219 403.077 34.4411C402.885 34.8604 402.394 35.0851 401.605 35.1152L397.368 35.277ZM398.681 34.2832L401.188 34.1875C401.5 34.1756 401.706 34.0535 401.806 33.8212C401.91 33.5851 401.945 33.2411 401.913 32.7892C401.882 32.3672 401.787 32.0432 401.628 31.8171C401.469 31.591 401.194 31.4854 400.803 31.5004L398.487 31.5888L398.681 34.2832ZM398.426 30.7429L400.658 30.6577C401.011 30.6442 401.245 30.5304 401.362 30.3163C401.482 30.0983 401.53 29.8193 401.505 29.4795C401.482 29.1621 401.408 28.9177 401.283 28.7465C401.161 28.5752 400.939 28.4956 400.616 28.508L398.272 28.5975L398.426 30.7429ZM409.51 34.8134L409.126 33.7215L408.728 28.187L410.086 28.1351L410.564 34.7731L409.51 34.8134ZM405.815 28.2926L406.081 32.0009C406.136 32.7628 406.28 33.2909 406.512 33.5854C406.748 33.8797 407.085 34.0185 407.525 34.0017C407.979 33.9843 408.351 33.8054 408.639 33.4648C408.931 33.1241 409.058 32.6961 409.021 32.1808L409.717 32.5025C409.757 33.0552 409.547 33.5949 409.087 34.1218C408.628 34.6486 407.968 34.9284 407.108 34.9613C406.3 34.9921 405.718 34.7541 405.361 34.2472C405.004 33.7365 404.793 33.0238 404.727 32.1088L404.457 28.3445L405.815 28.2926ZM412.119 34.7137L412.051 33.7727L414.899 28.9006L414.898 28.8894L411.737 29.0101L411.67 28.0747L416.398 27.8941L416.465 28.8296L413.673 33.6939L413.675 33.7163L416.875 33.5941L416.943 34.5296L412.119 34.7137ZM418.304 34.4776L418.236 33.5365L421.084 28.6645L421.083 28.6533L417.922 28.774L417.855 27.8385L422.582 27.658L422.65 28.5934L419.858 33.4577L419.86 33.4801L423.06 33.3579L423.128 34.2934L418.304 34.4776ZM425.853 34.1893L423.961 27.6053L425.369 27.5515L426.768 33.25L426.779 33.2496L427.714 27.462L429.089 27.4095L430.853 33.0828L430.87 33.0822L431.405 27.3211L432.813 27.2673L431.882 33.9591L430.056 34.0288L428.487 28.7862L427.701 34.1188L425.853 34.1893ZM437.44 33.7974C436.377 33.838 435.579 33.5858 435.046 33.0407C434.513 32.4955 434.206 31.6572 434.125 30.5257C434.043 29.3904 434.228 28.5351 434.681 27.9599C435.133 27.3847 435.89 27.0768 436.953 27.0362C438.02 26.9954 438.818 27.244 439.346 27.7818C439.879 28.3194 440.185 29.1559 440.267 30.2911C440.349 31.4227 440.163 32.2798 439.712 32.8625C439.264 33.445 438.507 33.7567 437.44 33.7974ZM437.373 32.8675C437.873 32.8485 438.27 32.6648 438.565 32.3165C438.86 31.9645 438.973 31.3086 438.904 30.3488C438.835 29.3853 438.628 28.7435 438.285 28.4233C437.942 28.0994 437.52 27.947 437.02 27.9661C436.524 27.985 436.127 28.1687 435.828 28.5171C435.533 28.8617 435.42 29.5157 435.489 30.4792C435.558 31.439 435.764 32.0827 436.108 32.4103C436.455 32.7341 436.877 32.8865 437.373 32.8675ZM445.83 29.9214C445.766 29.0326 445.618 28.4391 445.385 28.141C445.153 27.839 444.835 27.6957 444.434 27.7111C443.975 27.7286 443.624 27.8974 443.379 28.2176C443.138 28.5338 443.032 28.8861 443.06 29.2745L442.511 28.9472C442.469 28.3609 442.66 27.8556 443.086 27.4311C443.514 27.0029 444.108 26.7742 444.867 26.7452C445.663 26.7148 446.23 26.9516 446.568 27.4555C446.905 27.9556 447.114 28.7602 447.194 29.8694L445.83 29.9214ZM442.013 33.5723L441.535 26.9342L442.595 26.8938L442.983 28.126L443.371 33.5204L442.013 33.5723ZM453.393 33.1377L453.226 32.0768L452.67 24.3465L454.028 24.2947L454.66 33.0893L453.393 33.1377ZM451.198 33.2609C450.364 33.2927 449.725 33.0325 449.283 32.4802C448.839 31.9242 448.578 31.0916 448.498 29.9825C448.418 28.8733 448.559 28.0273 448.92 27.4443C449.281 26.8613 449.879 26.5539 450.713 26.522C451.461 26.4935 452.11 26.6521 452.663 26.998C453.219 27.3438 453.512 27.7221 453.541 28.1329L452.991 28.8111C452.964 28.4339 452.778 28.1077 452.435 27.8325C452.091 27.5572 451.694 27.4282 451.243 27.4455C450.766 27.4637 450.4 27.648 450.147 27.9985C449.897 28.345 449.806 28.9907 449.874 29.9356C449.942 30.8804 450.125 31.5175 450.424 31.8468C450.726 32.176 451.116 32.3315 451.593 32.3133C452.044 32.2961 452.42 32.1357 452.722 31.8321C453.024 31.5284 453.162 31.1862 453.134 30.8053L453.78 31.4547C453.809 31.8617 453.572 32.2583 453.069 32.6445C452.569 33.0269 451.945 33.2323 451.198 33.2609ZM459.209 32.9662C458.383 32.9977 457.696 32.8835 457.15 32.6235C456.604 32.3598 456.237 31.8738 456.051 31.1657L457.221 30.6998C457.329 31.2049 457.549 31.5654 457.881 31.7811C458.213 31.9969 458.642 32.0947 459.168 32.0746C459.645 32.0564 459.999 31.9605 460.232 31.7869C460.468 31.6131 460.576 31.3899 460.557 31.1173C460.529 30.7326 460.313 30.4862 459.91 30.378C459.506 30.2661 459.002 30.1599 458.395 30.0595C457.679 29.952 457.094 29.7666 456.638 29.5031C456.182 29.2397 455.93 28.7849 455.884 28.1389C455.841 27.5414 456.057 27.0819 456.531 26.7605C457.008 26.4352 457.674 26.2562 458.526 26.2237C459.364 26.1917 460.043 26.3081 460.563 26.5728C461.083 26.8375 461.429 27.3018 461.601 27.9655L460.431 28.4259C460.327 27.9842 460.117 27.6515 459.8 27.4277C459.482 27.2001 459.071 27.096 458.568 27.1152C458.091 27.1334 457.742 27.2291 457.521 27.4023C457.303 27.5754 457.205 27.8038 457.225 28.0877C457.251 28.4424 457.454 28.6762 457.835 28.789C458.22 28.8979 458.705 29.001 459.293 29.0984C460.001 29.2025 460.599 29.3744 461.087 29.6141C461.579 29.85 461.848 30.3021 461.896 30.9706C461.943 31.6204 461.735 32.1077 461.273 32.4324C460.814 32.7532 460.126 32.9312 459.209 32.9662Z" fill="black"/>
<defs>
<filter id="filter0_d_2111_102" x="0.279585" y="9.8526" width="1207.44" height="936.891" filterUnits="userSpaceOnUse" color-interpolation-filters="sRGB">
<feFlood flood-opacity="0" result="BackgroundImageFix"/>
<feColorMatrix in="SourceAlpha" type="matrix" values="0 0 0 0 0 0 0 0 0 0 0 0 0 0 0 0 0 0 127 0" result="hardAlpha"/>
<feOffset dy="-11.3602"/>
<feGaussianBlur stdDeviation="11.3602"/>
<feComposite in2="hardAlpha" operator="out"/>
<feColorMatrix type="matrix" values="0 0 0 0 0 0 0 0 0 0 0 0 0 0 0 0 0 0 0.2 0"/>
<feBlend mode="normal" in2="BackgroundImageFix" result="effect1_dropShadow_2111_102"/>
<feBlend mode="normal" in="SourceGraphic" in2="effect1_dropShadow_2111_102" result="shape"/>
</filter>
<linearGradient id="paint0_linear_2111_102" x1="456.353" y1="0.307931" x2="442.167" y2="60.4682" gradientUnits="userSpaceOnUse">
<stop stop-color="#0F061D"/>
<stop offset="1" stop-color="#1E0D37"/>
</linearGradient>
<linearGradient id="paint1_linear_2111_102" x1="454.497" y1="-36.7456" x2="444.986" y2="82.3806" gradientUnits="userSpaceOnUse">
<stop stop-color="white" stop-opacity="0.62"/>
<stop offset="1" stop-opacity="0"/>
</linearGradient>
</defs>
</svg>
