<svg width="284" height="180" viewBox="0 0 284 180" fill="none" xmlns="http://www.w3.org/2000/svg">
<rect width="282.683" height="179.07" rx="31.5344" fill="#312345"/>
<path d="M32.4584 34.274C30.302 34.274 28.8454 33.8866 28.0886 33.1118C27.3378 32.3309 26.9624 31.2287 26.9624 29.8052H30.0257C30.0257 30.8443 30.245 31.505 30.6834 31.7873C31.1279 32.0636 31.7106 32.2018 32.4313 32.2018C33.1581 32.2018 33.7408 32.0937 34.1793 31.8774C34.6177 31.6552 34.837 31.3158 34.837 30.8593C34.837 30.3187 34.5366 29.9493 33.936 29.7511C33.3353 29.5529 32.5064 29.3487 31.4493 29.1384C29.7735 28.7841 28.6082 28.3786 27.9535 27.9221C27.2988 27.4656 26.9714 26.7148 26.9714 25.6697C26.9714 24.6425 27.3558 23.7626 28.1247 23.0298C28.8935 22.297 30.32 21.9306 32.4043 21.9306C34.5006 21.9306 35.9302 22.33 36.693 23.1289C37.4558 23.9278 37.8372 24.9969 37.8372 26.3364H34.7739C34.7739 25.3273 34.5457 24.6876 34.0892 24.4173C33.6387 24.141 33.065 24.0028 32.3683 24.0028C31.6295 24.0028 31.0378 24.117 30.5933 24.3452C30.1549 24.5735 29.9356 24.8978 29.9356 25.3183C29.9356 25.8829 30.242 26.2643 30.8546 26.4625C31.4673 26.6607 32.2962 26.865 33.3413 27.0752C35.0772 27.4356 36.2635 27.826 36.9002 28.2465C37.5369 28.6669 37.8553 29.3967 37.8553 30.4359C37.8553 31.499 37.4799 32.406 36.729 33.1568C35.9842 33.9016 34.5607 34.274 32.4584 34.274ZM44.6078 34.3011C42.5896 34.3011 41.1781 33.8145 40.3732 32.8415C39.5623 31.8624 39.1569 30.532 39.1569 28.8501C39.1569 27.1323 39.5653 25.7958 40.3822 24.8408C41.1931 23.8857 42.5836 23.4082 44.5538 23.4082C46.578 23.4082 47.9805 23.8917 48.7614 24.8588C49.5362 25.8318 49.9236 27.1623 49.9236 28.8501C49.9236 29.1805 49.9026 29.4808 49.8606 29.7511H41.8058V27.9221H46.8603C46.7942 27.0091 46.608 26.3694 46.3017 26.003C45.8872 25.5766 45.3046 25.3633 44.5538 25.3633C43.827 25.3633 43.2323 25.5976 42.7698 26.0661C42.3133 26.5286 42.0851 27.4596 42.0851 28.8591C42.0851 30.2286 42.3133 31.1506 42.7698 31.6252C43.2203 32.1057 43.833 32.3459 44.6078 32.3459V34.3011ZM44.6078 32.3459C45.0583 32.3459 45.4307 32.2889 45.7251 32.1748C46.0254 32.0486 46.2656 31.8474 46.4458 31.5711C46.614 31.2828 46.7612 30.9494 46.8873 30.571L49.5993 31.3368C49.4671 32.0396 49.1818 32.6042 48.7433 33.0307C48.2989 33.4632 47.7673 33.7815 47.1486 33.9857C46.5239 34.196 45.677 34.3011 44.6078 34.3011V32.3459ZM51.4376 38.2023V23.5253H53.7711L54.4559 25.2102V38.2023H51.4376ZM57.8526 34.265C56.5792 34.265 55.471 33.9707 54.5279 33.3821C53.5909 32.7934 53.1224 32.1417 53.1224 31.4269L54.4559 30.0935C54.4559 30.6941 54.6871 31.1957 55.1496 31.5981C55.6181 32.0006 56.1647 32.2018 56.7894 32.2018C57.4681 32.2018 57.9907 31.9795 58.3571 31.5351C58.7295 31.0906 58.9157 30.1956 58.9157 28.8501C58.9157 27.5227 58.7295 26.6337 58.3571 26.1832C57.9907 25.7327 57.4681 25.5075 56.7894 25.5075C56.1647 25.5075 55.6181 25.7087 55.1496 26.1111C54.6871 26.5136 54.4559 27.0091 54.4559 27.5978L53.1224 26.2913C53.1224 25.5706 53.5909 24.9128 54.5279 24.3182C55.471 23.7235 56.5792 23.4262 57.8526 23.4262C59.3001 23.4262 60.3483 23.9067 60.997 24.8678C61.6457 25.8288 61.97 27.1533 61.97 28.8411C61.97 30.523 61.6457 31.8474 60.997 32.8145C60.3483 33.7815 59.3001 34.265 57.8526 34.265ZM68.6389 34.3371C67.6898 34.3371 66.8849 34.1359 66.2242 33.7335C65.5695 33.331 65.2422 32.6102 65.2422 31.5711V25.6066H62.8005V23.5253H65.2422V21.0837H68.2785V23.5253H71.5671V25.6066H68.2785V30.9044C68.2785 31.481 68.4016 31.8594 68.6479 32.0396C68.8941 32.2198 69.2365 32.3099 69.675 32.3099C70.1195 32.3099 70.5549 32.2348 70.9814 32.0847V34.0848C70.2366 34.253 69.4557 34.3371 68.6389 34.3371ZM78.0075 34.3011C75.9893 34.3011 74.5778 33.8145 73.7729 32.8415C72.962 31.8624 72.5566 30.532 72.5566 28.8501C72.5566 27.1323 72.965 25.7958 73.7819 24.8408C74.5928 23.8857 75.9833 23.4082 77.9535 23.4082C79.9777 23.4082 81.3802 23.8917 82.1611 24.8588C82.9359 25.8318 83.3233 27.1623 83.3233 28.8501C83.3233 29.1805 83.3023 29.4808 83.2602 29.7511H75.2055V27.9221H80.26C80.1939 27.0091 80.0077 26.3694 79.7014 26.003C79.2869 25.5766 78.7043 25.3633 77.9535 25.3633C77.2267 25.3633 76.632 25.5976 76.1695 26.0661C75.713 26.5286 75.4848 27.4596 75.4848 28.8591C75.4848 30.2286 75.713 31.1506 76.1695 31.6252C76.62 32.1057 77.2327 32.3459 78.0075 32.3459V34.3011ZM78.0075 32.3459C78.458 32.3459 78.8304 32.2889 79.1247 32.1748C79.4251 32.0486 79.6653 31.8474 79.8455 31.5711C80.0137 31.2828 80.1609 30.9494 80.287 30.571L82.999 31.3368C82.8668 32.0396 82.5815 32.6042 82.143 33.0307C81.6985 33.4632 81.167 33.7815 80.5483 33.9857C79.9236 34.196 79.0767 34.3011 78.0075 34.3011V32.3459ZM84.8372 34.202V23.5253H87.1798L87.8645 25.1291V34.202H84.8372ZM91.1712 34.202V28.2104C91.1712 27.2314 91.054 26.5376 90.8198 26.1292C90.5915 25.7207 90.2161 25.5165 89.6935 25.5165C89.1469 25.5165 88.6995 25.7478 88.3511 26.2103C88.0087 26.6728 87.8375 27.3695 87.8375 28.3005L86.2338 27.6608C86.2338 26.6457 86.6783 25.6877 87.5672 24.7867C88.4562 23.8857 89.5013 23.4352 90.7026 23.4352C92.0962 23.4352 93.0272 23.8857 93.4957 24.7867C93.9642 25.6817 94.1985 26.7418 94.1985 27.9672V34.202H91.1712ZM97.478 34.202V28.2104C97.478 27.2314 97.3669 26.5376 97.1447 26.1292C96.9224 25.7207 96.553 25.5165 96.0365 25.5165C95.4899 25.5165 95.0454 25.7478 94.703 26.2103C94.3606 26.6728 94.1894 27.3695 94.1894 28.3005L92.5767 27.6608C92.5767 26.6698 93.0212 25.7177 93.9101 24.8047C94.7991 23.8917 95.8442 23.4352 97.0456 23.4352C98.4391 23.4352 99.3641 23.8857 99.8206 24.7867C100.277 25.6817 100.505 26.7418 100.505 27.9672V34.202H97.478ZM102.294 34.202V20.0565H105.321V32.6252L105.06 34.202H102.294ZM108.709 34.265C107.435 34.265 106.327 33.9707 105.384 33.3821C104.447 32.7934 103.979 32.1417 103.979 31.4269L105.312 30.0935C105.312 30.6941 105.543 31.1957 106.006 31.5981C106.474 32.0006 107.021 32.2018 107.646 32.2018C108.324 32.2018 108.847 31.9795 109.213 31.5351C109.586 31.0906 109.772 30.1956 109.772 28.8501C109.772 27.5227 109.586 26.6337 109.213 26.1832C108.847 25.7327 108.324 25.5075 107.646 25.5075C107.021 25.5075 106.474 25.7087 106.006 26.1111C105.543 26.5136 105.312 27.0091 105.312 27.5978L103.979 26.2913C103.979 25.5706 104.447 24.9128 105.384 24.3182C106.327 23.7235 107.435 23.4262 108.709 23.4262C110.156 23.4262 111.204 23.9067 111.853 24.8678C112.502 25.8288 112.826 27.1533 112.826 28.8411C112.826 30.523 112.502 31.8474 111.853 32.8145C111.204 33.7815 110.156 34.265 108.709 34.265ZM119.467 34.3011C117.449 34.3011 116.037 33.8145 115.232 32.8415C114.421 31.8624 114.016 30.532 114.016 28.8501C114.016 27.1323 114.424 25.7958 115.241 24.8408C116.052 23.8857 117.443 23.4082 119.413 23.4082C121.437 23.4082 122.839 23.8917 123.62 24.8588C124.395 25.8318 124.783 27.1623 124.783 28.8501C124.783 29.1805 124.762 29.4808 124.72 29.7511H116.665V27.9221H121.719C121.653 27.0091 121.467 26.3694 121.161 26.003C120.746 25.5766 120.164 25.3633 119.413 25.3633C118.686 25.3633 118.091 25.5976 117.629 26.0661C117.172 26.5286 116.944 27.4596 116.944 28.8591C116.944 30.2286 117.172 31.1506 117.629 31.6252C118.079 32.1057 118.692 32.3459 119.467 32.3459V34.3011ZM119.467 32.3459C119.917 32.3459 120.29 32.2889 120.584 32.1748C120.884 32.0486 121.125 31.8474 121.305 31.5711C121.473 31.2828 121.62 30.9494 121.746 30.571L124.458 31.3368C124.326 32.0396 124.041 32.6042 123.602 33.0307C123.158 33.4632 122.626 33.7815 122.008 33.9857C121.383 34.196 120.536 34.3011 119.467 34.3011V32.3459ZM133.117 28.7781C133.117 27.4326 132.964 26.5526 132.657 26.1382C132.357 25.7237 131.931 25.5165 131.378 25.5165C130.747 25.5165 130.243 25.7387 129.864 26.1832C129.492 26.6217 129.306 27.1232 129.306 27.6879L128.144 27.0031C128.144 25.994 128.546 25.1471 129.351 24.4623C130.156 23.7716 131.213 23.4262 132.522 23.4262C133.934 23.4262 134.889 23.8617 135.387 24.7326C135.892 25.5976 136.144 26.9461 136.144 28.7781H133.117ZM126.296 34.202V23.5253H128.63L129.315 25.3723V34.202H126.296ZM142.439 34.202V32.427C142.439 31.5801 142.749 30.8263 143.367 30.1656C143.992 29.4988 144.956 28.8561 146.259 28.2375C147.485 27.6548 148.257 27.1893 148.575 26.8409C148.899 26.4866 149.061 26.0361 149.061 25.4895C149.061 24.9128 148.92 24.5254 148.638 24.3272C148.356 24.123 147.941 24.0209 147.395 24.0209C146.77 24.0209 146.286 24.168 145.944 24.4623C145.608 24.7507 145.44 25.3423 145.44 26.2373H142.403C142.403 25.06 142.734 24.0509 143.394 23.21C144.061 22.3631 145.395 21.9396 147.395 21.9396C149.413 21.9396 150.704 22.312 151.269 23.0568C151.84 23.7956 152.125 24.5945 152.125 25.4534C152.125 26.4745 151.782 27.3245 151.098 28.0032C150.419 28.6759 149.542 29.3126 148.467 29.9133C147.476 30.4238 146.755 30.8443 146.304 31.1747C145.86 31.505 145.638 31.8204 145.638 32.1207H152.107V34.202H142.439ZM158.175 34.3371C156.547 34.3371 155.34 34.0578 154.553 33.4992C153.772 32.9346 153.382 32.0516 153.382 30.8503V25.4264C153.382 24.2191 153.775 23.3361 154.562 22.7775C155.349 22.2189 156.553 21.9396 158.175 21.9396C159.797 21.9396 161.001 22.2219 161.788 22.7865C162.575 23.3451 162.968 24.2251 162.968 25.4264V30.8503C162.968 32.0516 162.575 32.9346 161.788 33.4992C161.001 34.0578 159.797 34.3371 158.175 34.3371ZM158.175 32.2558C158.788 32.2558 159.229 32.1327 159.5 31.8864C159.776 31.6342 159.914 31.2437 159.914 30.7152V25.5525C159.914 25.024 159.779 24.6365 159.509 24.3903C159.238 24.144 158.794 24.0209 158.175 24.0209C157.538 24.0209 157.088 24.144 156.824 24.3903C156.559 24.6305 156.427 25.018 156.427 25.5525V30.7152C156.427 31.2497 156.559 31.6402 156.824 31.8864C157.094 32.1327 157.544 32.2558 158.175 32.2558ZM164.348 34.202V32.427C164.348 31.5801 164.657 30.8263 165.276 30.1656C165.901 29.4988 166.865 28.8561 168.168 28.2375C169.393 27.6548 170.165 27.1893 170.484 26.8409C170.808 26.4866 170.97 26.0361 170.97 25.4895C170.97 24.9128 170.829 24.5254 170.547 24.3272C170.264 24.123 169.85 24.0209 169.303 24.0209C168.679 24.0209 168.195 24.168 167.853 24.4623C167.516 24.7507 167.348 25.3423 167.348 26.2373H164.312C164.312 25.06 164.642 24.0509 165.303 23.21C165.97 22.3631 167.303 21.9396 169.303 21.9396C171.322 21.9396 172.613 22.312 173.178 23.0568C173.748 23.7956 174.033 24.5945 174.033 25.4534C174.033 26.4745 173.691 27.3245 173.006 28.0032C172.328 28.6759 171.451 29.3126 170.375 29.9133C169.384 30.4238 168.664 30.8443 168.213 31.1747C167.769 31.505 167.546 31.8204 167.546 32.1207H174.015V34.202H164.348ZM180.66 34.202V31.5441H175.146V29.5529L179.201 22.0387H183.688V29.5889H185.201V31.5441H183.688V34.202H180.66ZM178.174 29.5889H180.66V24.1921H180.633L178.174 29.5889Z" fill="white"/>
<path d="M0.602417 88.7433C27.2705 96.5858 92.3217 105.885 139.181 80.3406C186.041 54.7964 254.521 79.2202 282.904 94.6252" stroke="white" stroke-width="2.84005" stroke-dasharray="5.68 5.68"/>
<rect x="21.4238" y="53.4952" width="67.0105" height="67.0105" rx="13.5147" transform="rotate(5.79933 21.4238 53.4952)" fill="#FF4E78"/>
<path d="M33.0084 97.0692L33.3223 93.9789C33.4721 92.5044 34.144 91.2467 35.338 90.2057C36.5435 89.1554 38.3356 88.2069 40.7143 87.3603C42.9507 86.5626 44.3768 85.8886 44.9927 85.3384C45.6201 84.7788 45.9821 84.0231 46.0788 83.0715C46.1808 82.0675 46.0035 81.3681 45.5471 80.973C45.0917 80.5675 44.3882 80.3165 43.4365 80.2198C42.3489 80.1093 41.4811 80.28 40.8329 80.7319C40.1963 81.1744 39.7989 82.1747 39.6406 83.7329L34.3542 83.1959C34.5624 81.1462 35.3161 79.4478 36.6151 78.1006C37.9257 76.7439 40.3222 76.2425 43.8046 76.5962C47.3184 76.9531 49.5009 77.8299 50.3522 79.2265C51.215 80.6137 51.5705 82.055 51.4186 83.5505C51.238 85.3283 50.4916 86.7475 49.1794 87.8081C47.8787 88.8593 46.2393 89.8127 44.2611 90.6684C42.4453 91.382 41.1161 91.9866 40.2733 92.4821C39.441 92.9786 38.9983 93.4883 38.9452 94.0112L50.2081 95.1553L49.84 98.7788L33.0084 97.0692ZM52.2795 99.0266L52.5934 95.9364C52.7432 94.4619 53.4151 93.2041 54.6091 92.1632C55.8146 91.1129 57.6067 90.1644 59.9854 89.3178C62.2218 88.5201 63.6479 87.8461 64.2638 87.2959C64.8912 86.7362 65.2532 85.9806 65.3499 85.029C65.4518 84.025 65.2746 83.3255 64.8181 82.9305C64.3627 82.525 63.6592 82.2739 62.7076 82.1773C61.62 82.0668 60.7521 82.2375 60.104 82.6894C59.4674 83.1319 59.0699 84.1322 58.9117 85.6904L53.6253 85.1534C53.8335 83.1037 54.5871 81.4053 55.8862 80.058C57.1968 78.7014 59.5933 78.2 63.0757 78.5537C66.5894 78.9106 68.772 79.7874 69.6233 81.184C70.4861 82.5712 70.8415 84.0125 70.6896 85.508C70.5091 87.2858 69.7627 88.705 68.4505 89.7656C67.1498 90.8168 65.5104 91.7702 63.5322 92.6258C61.7164 93.3395 60.3871 93.944 59.5444 94.4395C58.7121 94.9361 58.2694 95.4458 58.2163 95.9687L69.4792 97.1128L69.1111 100.736L52.2795 99.0266Z" fill="white"/>
<rect x="189.233" y="49.5545" width="67.0105" height="67.0105" rx="13.5147" fill="#ADDB02"/>
<path d="M204.477 92.0114V88.9053C204.477 87.4232 205.018 86.104 206.101 84.9477C207.194 83.7809 208.881 82.6562 211.162 81.5735C213.307 80.5539 214.657 79.7393 215.214 79.1296C215.782 78.5094 216.066 77.7211 216.066 76.7645C216.066 75.7554 215.819 75.0775 215.325 74.7306C214.831 74.3732 214.106 74.1945 213.149 74.1945C212.056 74.1945 211.21 74.452 210.61 74.9671C210.022 75.4716 209.728 76.507 209.728 78.0732H204.414C204.414 76.013 204.992 74.2471 206.148 72.7754C207.315 71.2933 209.649 70.5523 213.149 70.5523C216.681 70.5523 218.941 71.204 219.929 72.5074C220.927 73.8003 221.427 75.1983 221.427 76.7015C221.427 78.4884 220.828 79.9758 219.629 81.1636C218.442 82.3409 216.907 83.4551 215.025 84.5062C213.291 85.3997 212.03 86.1355 211.241 86.7136C210.463 87.2918 210.074 87.8436 210.074 88.3692H221.395V92.0114H204.477ZM233.024 92.0114V87.3601H223.374V83.8755L230.469 70.7257H238.322V83.9386H240.97V87.3601H238.322V92.0114H233.024ZM228.672 83.9386H233.024V74.4941H232.976L228.672 83.9386Z" fill="white"/>
<rect x="99.3737" y="63.0715" width="67.0105" height="67.0105" rx="13.5147" transform="rotate(-9.70202 99.3737 63.0715)" fill="#306EF9"/>
<path d="M129.72 101.016C126.912 101.495 124.747 101.37 123.225 100.638C121.712 99.8944 120.778 98.4864 120.424 96.4142L118.824 87.058C118.468 84.9754 118.887 83.3363 120.079 82.1407C121.272 80.9451 123.267 80.1082 126.064 79.6301C128.862 79.1519 131.023 79.2837 132.546 80.0257C134.068 80.7573 135.006 82.1592 135.361 84.2314L136.96 93.5876C137.314 95.6598 136.896 97.2989 135.705 98.5048C134.512 99.7004 132.517 100.537 129.72 101.016ZM129.106 97.4254C130.163 97.2447 130.888 96.9022 131.282 96.3976C131.684 95.881 131.807 95.1668 131.651 94.255L130.129 85.3496C129.973 84.4378 129.626 83.8093 129.087 83.4642C128.548 83.1191 127.745 83.0378 126.678 83.2202C125.58 83.4079 124.839 83.7532 124.456 84.2559C124.071 84.7483 123.957 85.4555 124.115 86.3777L125.637 95.2831C125.794 96.2053 126.138 96.8398 126.666 97.1867C127.205 97.5318 128.018 97.6113 129.106 97.4254ZM148.506 97.7723C145.087 98.3567 142.806 98.0163 141.662 96.7509C140.516 95.4751 139.841 94.2415 139.637 93.0499L144.875 92.1546C145.074 93.0058 145.403 93.6213 145.862 94.0013C146.322 94.3813 147.008 94.4934 147.919 94.3375C148.987 94.1551 149.761 93.6335 150.243 92.7726C150.723 91.9014 150.62 89.4557 149.933 85.4356C149.448 82.5966 148.879 80.9236 148.227 80.4165C147.573 79.8991 146.729 79.7289 145.692 79.906C144.636 80.0867 143.88 80.4717 143.427 81.0611C142.971 81.6402 142.874 82.6965 143.136 84.2299C143.416 85.867 143.848 86.8649 144.432 87.2237C145.014 87.572 145.808 87.6603 146.813 87.4885C147.797 87.3203 148.557 86.9612 149.092 86.4111C149.637 85.8593 149.88 85.2207 149.82 84.4951L152.485 85.2073C152.577 86.1833 151.975 87.3099 150.679 88.5871C149.394 89.8626 147.684 90.6828 145.549 91.0476C143.135 91.4603 141.344 91.1212 140.177 90.0304C139.018 88.9275 138.253 87.2882 137.881 85.1123C137.511 82.9468 137.744 81.0994 138.581 79.57C139.418 78.0407 141.675 76.9616 145.354 76.3329C148.845 75.736 151.235 76.2394 152.522 77.8429C153.807 79.436 154.726 81.8489 155.279 85.0816C155.904 88.7391 155.831 91.615 155.058 93.7092C154.286 95.8033 152.102 97.1577 148.506 97.7723Z" fill="white"/>
</svg>
