<svg width="1173" height="1247" viewBox="0 0 1173 1247" fill="none" xmlns="http://www.w3.org/2000/svg">
<path d="M0.975586 93.6182C0.975586 79.9123 12.0864 68.8015 25.7922 68.8015H1138.54C1152.25 68.8015 1163.36 79.9123 1163.36 93.6181V1246.65H0.975586V93.6182Z" fill="#2D1D44"/>
<g filter="url(#filter0_f_2106_4)">
<ellipse cx="829.621" cy="300.836" rx="109.736" ry="67.8579" fill="#306EF9"/>
</g>
<mask id="mask0_2106_4" style="mask-type:alpha" maskUnits="userSpaceOnUse" x="579" y="8" width="246" height="62">
<path d="M824.63 68.8218H579.434C583.366 68.8218 592.073 62.1326 595.443 35.3757C598.814 8.6188 610.891 7.28095 616.508 9.95664H779.13C795.981 9.95664 801.037 8.6188 806.093 35.3757C810.137 56.7812 820.136 66.5921 824.63 68.8218Z" fill="url(#paint0_linear_2106_4)" stroke="url(#paint1_linear_2106_4)" stroke-width="0.775519"/>
</mask>
<g mask="url(#mask0_2106_4)">
<path d="M824.63 68.8214H579.434C583.366 68.8214 592.073 62.1321 595.443 35.3752C598.814 8.61832 607.929 9.95669 616.508 9.95616H779.13C795.981 9.95616 801.037 8.61832 806.093 35.3752C810.137 56.7808 820.136 66.5916 824.63 68.8214Z" fill="url(#paint2_linear_2106_4)" stroke="url(#paint3_linear_2106_4)" stroke-width="0.775519"/>
</g>
<path d="M623.906 37.4485C623.556 33.9095 626.272 30.8122 629.826 30.696L770.285 26.1035C773.549 25.9968 776.328 28.4607 776.613 31.7148L779.903 69.3213L627.058 69.3213L623.906 37.4485Z" fill="#CAFB12"/>
<path d="M638.71 57.329L638.166 46.964L643.702 46.6738C644.797 46.6164 645.509 46.8255 645.837 47.3011C646.164 47.7715 646.344 48.3138 646.376 48.9281C646.41 49.5679 646.301 50.1279 646.049 50.6082C645.796 51.0833 645.397 51.3481 644.851 51.4024C645.426 51.403 645.892 51.6352 646.25 52.0989C646.608 52.5575 646.806 53.1656 646.846 53.9231C646.891 54.7779 646.777 55.4947 646.504 56.0736C646.232 56.6525 645.558 56.9701 644.483 57.0264L638.71 57.329ZM640.523 55.9405L643.94 55.7615C644.365 55.7392 644.648 55.5678 644.79 55.2473C644.938 54.9213 644.995 54.4487 644.962 53.8293C644.932 53.251 644.811 52.8082 644.6 52.501C644.389 52.1939 644.017 52.0542 643.485 52.0821L640.33 52.2475L640.523 55.9405ZM640.269 51.0882L643.309 50.9288C643.79 50.9036 644.113 50.743 644.277 50.447C644.446 50.1455 644.518 49.7619 644.494 49.2962C644.471 48.8611 644.377 48.5273 644.21 48.2948C644.049 48.062 643.749 47.9571 643.309 47.9802L640.115 48.1476L640.269 51.0882ZM649.221 56.7781L648.744 47.6722L650.602 47.5749L651.079 56.6807L649.221 56.7781ZM648.61 45.1155L650.468 45.0181L650.547 46.5153L648.688 46.6127L648.61 45.1155ZM658.872 51.4682C658.808 50.25 658.622 49.4386 658.313 49.0339C658.004 48.6241 657.576 48.4335 657.028 48.4622C656.404 48.4949 655.921 48.7332 655.58 49.1771C655.243 49.6156 655.089 50.101 655.117 50.6334L654.378 50.1948C654.336 49.3911 654.61 48.6942 655.2 48.1038C655.795 47.508 656.609 47.183 657.643 47.1288C658.728 47.072 659.494 47.386 659.941 48.0709C660.387 48.7507 660.65 49.8507 660.73 51.3709L658.872 51.4682ZM653.579 56.5497L653.103 47.4515L654.546 47.3759L655.042 49.059L655.43 56.4527L653.579 56.5497ZM667.191 55.9441C666.48 55.9814 665.873 55.8592 665.37 55.5776C664.873 55.2906 664.603 54.735 664.559 53.911L664.258 48.1603L662.139 48.2713L662.071 46.9815L664.19 46.8704L664.082 44.8051L665.94 44.7077L666.048 46.773L668.997 46.6185L669.064 47.9084L666.116 48.0629L666.395 53.3913C666.424 53.9287 666.555 54.2786 666.789 54.4408C667.023 54.603 667.343 54.6736 667.747 54.6524C668.121 54.6328 668.484 54.5522 668.835 54.4106L668.901 55.6544C668.36 55.8161 667.79 55.9127 667.191 55.9441ZM671.408 55.6153L670.776 43.5612L672.634 43.4638L673.266 55.518L671.408 55.6153ZM677.212 55.3111L676.946 50.2284C676.891 49.1843 676.7 48.4629 676.371 48.0644C676.042 47.6659 675.575 47.4825 674.971 47.5141C674.362 47.5461 673.863 47.8032 673.472 48.2856C673.087 48.7677 672.913 49.3645 672.95 50.076L672.025 49.6087C671.985 48.846 672.29 48.1012 672.939 47.3743C673.594 46.6419 674.476 46.2467 675.587 46.1884C676.672 46.1316 677.461 46.4469 677.954 47.1345C678.447 47.8221 678.726 48.7955 678.792 50.0547L679.063 55.2142L677.212 55.3111ZM687.393 54.7776L687.193 53.3253L686.638 42.7299L688.488 42.6329L689.12 54.6871L687.393 54.7776ZM684.401 54.9883C683.265 55.0478 682.402 54.703 681.814 53.9536C681.225 53.1992 680.891 52.0619 680.811 50.5417C680.732 49.0215 680.945 47.858 681.452 47.0513C681.959 46.2446 682.781 45.8114 683.917 45.7519C684.936 45.6985 685.816 45.9039 686.559 46.3679C687.307 46.8317 687.696 47.3451 687.726 47.9082L686.959 48.8491C686.932 48.3321 686.688 47.8881 686.227 47.5171C685.766 47.146 685.229 46.9766 684.614 47.0088C683.964 47.0428 683.462 47.3027 683.108 47.7883C682.758 48.2686 682.617 49.1562 682.685 50.4512C682.753 51.7462 682.986 52.6168 683.384 53.063C683.787 53.5089 684.314 53.7148 684.964 53.6808C685.578 53.6486 686.095 53.4213 686.514 52.999C686.933 52.5767 687.129 52.1045 687.102 51.5824L687.964 52.4611C687.993 53.019 687.66 53.5677 686.965 54.1071C686.274 54.6412 685.42 54.9349 684.401 54.9883ZM694.381 54.4961C693.884 54.5221 693.434 54.5021 693.03 54.436C692.631 54.3696 692.283 54.2416 691.986 54.0519C691.694 53.8568 691.461 53.5841 691.289 53.2338C691.122 52.8833 691.024 52.4368 690.995 51.8942C690.968 51.3772 691.017 50.9435 691.143 50.5931C691.273 50.2372 691.471 49.9497 691.736 49.7305C692.002 49.5112 692.332 49.3477 692.727 49.2397C693.121 49.1267 693.569 49.057 694.071 49.0307L697.012 48.8766L696.987 48.4082C696.961 47.9117 696.856 47.5169 696.671 47.2238C696.486 46.9255 696.231 46.7156 695.907 46.594C695.587 46.4722 695.21 46.4227 694.775 46.4455C694.406 46.4648 694.077 46.5437 693.786 46.6821C693.501 46.8202 693.266 47.0353 693.081 47.3272C692.896 47.6192 692.78 48 692.733 48.4695L690.887 48.0735C690.949 47.5776 691.088 47.152 691.306 46.7967C691.528 46.4411 691.808 46.1493 692.145 45.9212C692.487 45.6928 692.873 45.5186 693.303 45.3986C693.738 45.2782 694.204 45.2051 694.701 45.1791C695.555 45.1343 696.283 45.2116 696.884 45.4111C697.49 45.6103 697.959 45.9527 698.293 46.4382C698.626 46.9186 698.814 47.5734 698.858 48.4026L699.159 54.1609L697.609 54.2422L697.396 53.1293C697.332 53.2662 697.218 53.4081 697.057 53.5552C696.895 53.7022 696.687 53.844 696.432 53.9805C696.178 54.117 695.878 54.2328 695.534 54.3278C695.195 54.4175 694.811 54.4736 694.381 54.4961ZM694.724 53.2693C695.159 53.2465 695.543 53.1751 695.876 53.055C696.208 52.9298 696.482 52.7794 696.699 52.6038C696.92 52.4229 697.072 52.2404 697.155 52.0564L697.043 49.9066L694.563 50.0366C694.312 50.0497 694.078 50.0851 693.86 50.1427C693.647 50.1949 693.464 50.2815 693.311 50.4024C693.159 50.5233 693.042 50.6937 692.961 50.9135C692.885 51.1279 692.856 51.4015 692.873 51.7342C692.891 52.0669 692.948 52.3359 693.046 52.5412C693.149 52.7462 693.283 52.9035 693.448 53.0129C693.618 53.122 693.812 53.1965 694.03 53.2365C694.247 53.2713 694.479 53.2822 694.724 53.2693ZM703.277 53.9451L700.167 44.985L702.109 44.8832L704.617 52.62L704.632 52.6192L706.301 44.6635L708.244 44.5617L706.11 53.7967L703.277 53.9451ZM701.291 57.6138L701.224 56.3393C702.145 56.291 702.849 56.1053 703.335 55.7822C703.821 55.4641 704.173 54.8298 704.39 53.8791L706.11 53.7967C705.771 55.2567 705.204 56.2411 704.41 56.7498C703.62 57.2582 702.58 57.5462 701.291 57.6138ZM716.603 53.2468L714.079 42.9855L716.098 42.8797L718.066 51.7843L718.089 51.7831L719.569 42.6978L722.049 42.5679L724.47 51.4487L724.493 51.4475L725.55 42.3844L727.577 42.2782L726.093 52.7494L723.229 52.8995L720.888 43.9221L720.865 43.9233L719.475 53.0963L716.603 53.2468ZM730.268 52.5306L729.79 43.4248L731.648 43.3274L732.126 52.4333L730.268 52.5306ZM729.656 40.8681L731.514 40.7707L731.593 42.2679L729.735 42.3652L729.656 40.8681ZM738.591 52.1637C737.465 52.2227 736.534 52.0791 735.797 51.7327C735.06 51.3813 734.574 50.7216 734.338 49.7536L735.943 49.092C736.077 49.7831 736.367 50.2734 736.813 50.5631C737.26 50.8528 737.841 50.9789 738.558 50.9413C739.208 50.9073 739.693 50.7689 740.014 50.5263C740.34 50.2833 740.493 49.975 740.474 49.6014C740.446 49.0742 740.159 48.7402 739.613 48.5995C739.066 48.4536 738.382 48.3175 737.559 48.1913C736.587 48.0574 735.794 47.8141 735.18 47.4614C734.567 47.1086 734.236 46.4895 734.19 45.6039C734.147 44.785 734.453 44.1505 735.106 43.7005C735.765 43.2451 736.676 42.9869 737.837 42.926C738.979 42.8662 739.9 43.013 740.601 43.3663C741.303 43.7196 741.762 44.35 741.978 45.2574L740.373 45.9112C740.244 45.3072 739.966 44.8547 739.54 44.5537C739.113 44.2476 738.557 44.1125 737.871 44.1484C737.221 44.1825 736.743 44.3205 736.437 44.5623C736.137 44.8039 735.997 45.1192 736.017 45.5082C736.043 45.9944 736.313 46.3113 736.829 46.4588C737.35 46.6009 738.009 46.7332 738.806 46.8556C739.767 46.9849 740.577 47.2093 741.235 47.529C741.898 47.8432 742.254 48.4585 742.302 49.3747C742.349 50.2653 742.053 50.9378 741.415 51.3921C740.781 51.8411 739.84 52.0983 738.591 52.1637ZM744.507 51.7844L743.876 39.7302L745.734 39.6328L746.365 51.687L744.507 51.7844ZM750.312 51.4802L750.045 46.3975C749.991 45.3533 749.799 44.6319 749.47 44.2334C749.141 43.8349 748.675 43.6515 748.071 43.6832C747.462 43.7151 746.962 43.9722 746.571 44.4546C746.186 44.9368 746.012 45.5336 746.049 46.245L745.124 45.7777C745.084 45.015 745.389 44.2702 746.039 43.5433C746.693 42.811 747.576 42.4157 748.686 42.3575C749.772 42.3006 750.561 42.616 751.053 43.3036C751.546 43.9912 751.826 44.9646 751.892 46.2237L752.162 51.3832L750.312 51.4802Z" fill="black"/>
<defs>
<filter id="filter0_f_2106_4" x="487.229" y="0.322708" width="684.783" height="601.027" filterUnits="userSpaceOnUse" color-interpolation-filters="sRGB">
<feFlood flood-opacity="0" result="BackgroundImageFix"/>
<feBlend mode="normal" in="SourceGraphic" in2="BackgroundImageFix" result="shape"/>
<feGaussianBlur stdDeviation="116.328" result="effect1_foregroundBlur_2106_4"/>
</filter>
<linearGradient id="paint0_linear_2106_4" x1="727.512" y1="9" x2="724.557" y2="82.8541" gradientUnits="userSpaceOnUse">
<stop stop-color="#202020"/>
<stop offset="0.633905" stop-color="#575757"/>
</linearGradient>
<linearGradient id="paint1_linear_2106_4" x1="725.665" y1="-41.5901" x2="707.94" y2="120.15" gradientUnits="userSpaceOnUse">
<stop stop-color="white" stop-opacity="0.62"/>
<stop offset="1" stop-opacity="0"/>
</linearGradient>
<linearGradient id="paint2_linear_2106_4" x1="727.512" y1="9.00005" x2="728.675" y2="82.2526" gradientUnits="userSpaceOnUse">
<stop stop-color="#0F061D"/>
<stop offset="0.633905" stop-color="#2D1D44"/>
</linearGradient>
<linearGradient id="paint3_linear_2106_4" x1="725.665" y1="-41.59" x2="707.94" y2="120.15" gradientUnits="userSpaceOnUse">
<stop stop-color="white" stop-opacity="0.62"/>
<stop offset="1" stop-opacity="0"/>
</linearGradient>
</defs>
</svg>
