<svg width="70" height="71" viewBox="0 0 70 71" fill="none" xmlns="http://www.w3.org/2000/svg">
<path d="M35.0461 68.2311C52.801 68.2311 67.1436 53.6768 67.1436 35.7858C67.1436 17.8948 52.801 3.3405 35.0461 3.3405C17.2913 3.3405 2.94865 17.8948 2.94865 35.7858C2.94865 53.6768 17.2913 68.2311 35.0461 68.2311Z" fill="#06C96B" stroke="black" stroke-width="5.06802"/>
<path d="M34.8398 24.5806V40.1095C33.1326 39.1287 31.0257 38.7473 28.7918 39.5283C26.358 40.4001 24.4873 42.5614 24.0514 45.1041C23.8498 46.2483 23.9252 47.424 24.271 48.5331C24.6169 49.6421 25.2232 50.6523 26.0393 51.4791C26.8554 52.3059 27.8576 52.9253 28.9621 53.2855C30.0666 53.6457 31.2413 53.7363 32.3879 53.5496C35.9477 52.9866 38.4723 49.7174 38.4723 46.1031V28.2131H42.1048C44.1027 28.2131 45.7373 26.5785 45.7373 24.5806C45.7373 22.5827 44.1027 20.9481 42.1048 20.9481H38.4723C36.4745 20.9481 34.8398 22.5827 34.8398 24.5806Z" fill="white"/>
</svg>
