<svg width="936" height="290" viewBox="0 0 936 290" fill="none" xmlns="http://www.w3.org/2000/svg">
<path d="M49.5858 228.817L9.64521 36.9892L64.872 25.4903L100.691 197.524L99.9253 218.336L49.5858 228.817ZM150.687 208.659C132.115 212.526 114.912 211.943 99.0765 206.912C83.2242 201.799 74.1787 193.866 71.94 183.114L91.8688 155.763C93.5139 163.664 97.4501 169.304 103.678 172.681C109.888 175.978 116.455 176.905 123.379 175.463C131.117 173.852 136.492 170.481 139.503 165.35C142.497 160.137 142.391 149.833 139.186 134.438C136.048 119.369 132.066 110.042 127.241 106.457C122.398 102.791 116.108 101.764 108.369 103.375C101.446 104.817 95.8028 108.329 91.441 113.911C87.0791 119.494 85.6869 126.073 87.2641 133.648L58.1516 116.891C55.9129 106.138 61.0406 95.2548 73.5349 84.2397C86.0121 73.1431 101.537 65.6614 120.109 61.7946C141.694 57.3002 158.433 60.954 170.323 72.756C182.214 84.5579 190.39 101.17 194.85 122.593C199.311 144.016 198.462 162.592 192.303 178.322C186.145 194.052 172.273 204.164 150.687 208.659Z" fill="#FF4E78"/>
<path d="M193.342 172.026L186.439 64.4617L227.523 61.8248L234.427 169.389L193.342 172.026ZM184.203 29.6348L225.288 26.9979L226.936 52.6646L185.851 55.3015L184.203 29.6348Z" fill="#FF4E78"/>
<path d="M304.949 112.729C305.762 100.214 304.942 92.2674 302.49 88.8901C300.038 85.5129 296.605 83.6809 292.192 83.3941C287.053 83.0602 282.757 84.6936 279.305 88.2944C275.914 91.8992 274.057 96.1804 273.735 101.138L258.684 91.6904C259.395 80.7471 264.493 71.9102 273.977 65.1799C283.521 58.4534 295.428 55.5538 309.696 56.4809C325.597 57.514 335.908 62.8287 340.627 72.4248C345.35 81.9604 347.091 96.281 345.85 115.386L304.949 112.729ZM229.008 160.162L235.997 52.603L267.466 54.6477L275.808 72.0383L269.909 162.819L229.008 160.162Z" fill="#FF4E78"/>
<path d="M370.136 174.393C359.192 173.682 349.968 170.806 342.464 165.764C335.019 160.727 331.668 152.495 332.411 141.068L335.687 90.6438L311.745 89.0882L313.56 61.1555L337.502 62.7111L339.111 37.9526L380.103 40.6161L378.494 65.3746L409.51 67.3898L407.695 95.3225L376.679 93.3072L373.969 135.025C373.635 140.164 374.537 143.562 376.676 145.219C378.875 146.88 381.97 147.84 385.96 148.099C390.495 148.394 394.992 147.866 399.451 146.516L397.707 173.361C388.879 174.669 379.688 175.013 370.136 174.393ZM414.471 175.725L423.723 33.3411L464.715 36.0046L455.464 178.389L414.471 175.725ZM487.568 180.475L491.021 127.33C491.767 115.842 491.13 108.363 489.109 104.893C487.153 101.366 483.816 99.4487 479.1 99.1423C473.84 98.8006 469.181 100.896 465.122 105.429C461.067 109.901 458.778 116.158 458.256 124.199L438.811 115.103C439.467 105.007 445.151 95.0847 455.863 85.3376C466.639 75.534 480.22 71.1645 496.605 72.2291C511.599 73.2033 521.499 78.7645 526.304 88.9126C531.169 99.0647 533.087 112.061 532.058 127.902L528.469 183.132L487.568 180.475ZM623.196 189.287L621.429 174.418L629.726 46.726L670.537 49.3777L661.286 191.762L623.196 189.287ZM586.515 187.541C570.493 186.5 559.461 180.622 553.417 169.908C547.374 159.194 544.869 145.886 545.902 129.985C546.935 114.084 551.138 101.273 558.509 91.5516C565.88 81.8303 577.576 77.4901 593.598 78.5312C607.383 79.4268 619.309 83.2375 629.376 89.9631C639.507 96.6322 644.313 103.957 643.795 111.938L624.511 126.987C624.877 121.364 623.202 116.763 619.488 113.182C615.835 109.605 611.439 107.65 606.3 107.316C600.556 106.943 596.125 108.325 593.007 111.461C589.893 114.538 587.972 121.668 587.245 132.853C586.511 144.16 587.487 151.57 590.173 155.083C592.863 158.537 597.079 160.45 602.823 160.823C607.962 161.157 612.575 159.787 616.66 156.713C620.81 153.583 623.072 149.146 623.445 143.402L640.601 161.092C640.083 169.073 634.369 175.714 623.46 181.016C612.615 186.262 600.3 188.437 586.515 187.541ZM720.682 196.896C713.306 196.417 706.844 195.42 701.295 193.906C695.808 192.396 691.214 190.215 687.513 187.364C683.816 184.452 681.142 180.757 679.49 176.278C677.842 171.739 677.226 166.265 677.643 159.856C678.032 153.87 679.269 148.851 681.354 144.797C683.438 140.743 686.409 137.536 690.266 135.176C694.184 132.819 699.023 131.221 704.785 130.381C710.547 129.541 717.267 129.371 724.946 129.87L757.866 132.009L758.025 129.56C758.249 126.114 757.697 123.407 756.367 121.438C755.103 119.413 753.166 117.921 750.556 116.962C747.947 116.003 744.768 115.402 741.02 115.159C738.42 114.99 735.829 115.155 733.246 115.655C730.664 116.155 728.318 117.217 726.209 118.841C724.164 120.408 722.556 122.732 721.384 125.813L682.126 111.878C683.976 106.777 686.89 102.565 690.871 99.241C694.912 95.9213 699.661 93.3762 705.119 91.6058C710.577 89.8354 716.512 88.6728 722.923 88.1179C729.334 87.563 735.895 87.5036 742.606 87.9396C755.605 88.7842 766.398 90.8819 774.984 94.2327C783.57 97.5835 789.897 102.518 793.967 109.036C798.036 115.554 799.731 124.043 799.052 134.503L794.768 200.435L760.759 198.225L757.856 186.834C756.597 188.453 754.74 189.941 752.284 191.299C749.831 192.597 746.936 193.714 743.596 194.651C740.317 195.591 736.721 196.268 732.808 196.682C728.896 197.096 724.854 197.167 720.682 196.896ZM731.708 171.565C734.731 171.762 737.774 171.656 740.836 171.248C743.902 170.779 746.682 170.049 749.175 169.057C751.733 168.009 753.693 166.801 755.057 165.432L755.811 153.824L733.32 152.363C731.023 152.213 728.989 152.203 727.22 152.331C725.512 152.462 724.092 152.826 722.96 153.42C721.833 153.954 720.956 154.838 720.329 156.072C719.702 157.307 719.322 158.951 719.189 161.007C719.059 163.002 719.225 164.652 719.687 165.957C720.213 167.206 721.026 168.23 722.128 169.03C723.234 169.77 724.593 170.344 726.206 170.753C727.818 171.161 729.653 171.432 731.708 171.565ZM831.3 202.808L808.633 93.3226L851.348 96.0979L864.037 178.342L864.309 178.36L887.262 98.4314L930.068 101.213L893.786 206.868L831.3 202.808ZM809.673 244.116L811.459 216.637C825.848 217.572 836.302 217.401 842.821 216.125C849.336 214.909 853.72 210.974 855.974 204.32L893.786 206.868C887.553 224.314 877.584 235.232 863.88 239.624C850.234 244.08 832.164 245.578 809.673 244.116Z" fill="#FF4E78"/>
</svg>
