<svg width="618" height="287" viewBox="0 0 618 287" fill="none" xmlns="http://www.w3.org/2000/svg">
<path d="M229.179 193.525C221.831 194.323 215.293 194.454 209.567 193.918C203.901 193.375 199 192.018 194.864 189.847C190.721 187.615 187.451 184.436 185.052 180.308C182.647 176.121 181.098 170.834 180.405 164.45C179.757 158.486 180.111 153.329 181.467 148.976C182.822 144.624 185.197 140.953 188.59 137.964C192.043 134.968 196.535 132.561 202.066 130.741C207.597 128.922 214.187 127.596 221.837 126.766L254.634 123.204L254.369 120.764C253.997 117.331 252.986 114.759 251.337 113.049C249.743 111.272 247.578 110.136 244.842 109.641C242.107 109.145 238.872 109.101 235.138 109.506C232.548 109.787 230.024 110.397 227.566 111.334C225.108 112.271 222.98 113.721 221.182 115.684C219.438 117.58 218.254 120.146 217.63 123.383L176.559 116.417C177.502 111.073 179.648 106.421 182.997 102.462C186.406 98.4962 190.646 95.1713 195.717 92.4875C200.789 89.8036 206.435 87.6364 212.655 85.9858C218.874 84.3351 225.327 83.1468 232.013 82.4206C244.963 81.0141 255.956 81.222 264.991 83.0442C274.026 84.8664 281.108 88.6375 286.24 94.3574C291.371 100.077 294.502 108.148 295.634 118.568L302.768 184.253L268.886 187.932L264.065 177.212C263.104 179.023 261.531 180.809 259.345 182.57C257.153 184.27 254.493 185.87 251.364 187.367C248.296 188.858 244.871 190.145 241.088 191.226C237.305 192.307 233.335 193.073 229.179 193.525ZM235.679 166.674C238.69 166.347 241.669 165.718 244.616 164.789C247.555 163.799 250.168 162.602 252.453 161.195C254.792 159.723 256.515 158.195 257.623 156.612L256.367 145.047L233.96 147.48C231.671 147.729 229.666 148.069 227.946 148.499C226.285 148.923 224.949 149.525 223.937 150.306C222.918 151.026 222.206 152.048 221.801 153.372C221.397 154.695 221.306 156.381 221.528 158.429C221.744 160.417 222.192 162.014 222.871 163.22C223.604 164.359 224.582 165.228 225.805 165.826C227.022 166.365 228.459 166.696 230.118 166.821C231.777 166.945 233.631 166.896 235.679 166.674Z" fill="#306EF9"/>
<path d="M299.197 196.399L283.848 48.9679L315.214 45.7022L326.262 60.5423L339.965 192.155L299.197 196.399ZM369.74 149.033C356 150.464 343.58 148.772 332.48 143.958C321.373 139.084 315.406 132.669 314.577 124.715L331.034 106.372C331.642 112.217 334.077 116.593 338.34 119.5C342.595 122.346 347.284 123.502 352.407 122.969C358.132 122.373 362.274 120.328 364.834 116.833C367.388 113.277 368.072 105.805 366.886 94.4153C365.725 83.2668 363.529 76.2161 360.298 73.2631C357.06 70.2498 352.579 69.0412 346.854 69.6372C341.732 70.1705 337.385 72.2983 333.813 76.0205C330.241 79.7428 328.747 84.4061 329.33 90.0104L309.477 75.7217C308.648 67.7671 313.166 60.261 323.031 53.2034C332.889 46.0855 344.688 41.8113 358.428 40.3808C374.397 38.7181 386.254 42.6006 393.997 52.0282C401.74 61.4558 406.437 74.0941 408.087 89.943C409.737 105.792 407.75 119.187 402.128 130.128C396.505 141.069 385.71 147.371 369.74 149.033Z" fill="#306EF9"/>
<path d="M372.032 239.994V91.7659H403.568L413.02 107.67V239.994H372.032ZM447.1 200.188C433.286 200.188 421.108 197.219 410.566 191.281C400.024 185.283 394.753 178.285 394.753 170.288L413.02 153.747C413.02 159.624 414.989 164.229 418.927 167.561C422.865 170.833 427.409 172.469 432.559 172.469C438.315 172.469 442.647 170.863 445.555 167.652C448.464 164.38 449.918 157.019 449.918 145.568C449.918 134.359 448.464 127.119 445.555 123.847C442.647 120.515 438.315 118.849 432.559 118.849C427.409 118.849 422.865 120.515 418.927 123.847C414.989 127.18 413.02 131.663 413.02 137.298L394.753 121.03C394.753 113.032 400.024 106.034 410.566 100.036C421.108 93.9774 433.286 90.948 447.1 90.948C463.156 90.948 474.547 96.0374 481.272 106.216C487.997 116.395 491.36 129.452 491.36 145.386C491.36 161.321 487.997 174.438 481.272 184.738C474.547 195.038 463.156 200.188 447.1 200.188Z" fill="#306EF9"/>
<path d="M504.077 230.908L432.722 134.017L475.744 117.541L525.101 192.273L525.376 192.169L511.914 103.689L555.027 87.1781L567.011 206.807L504.077 230.908ZM501.484 281.023L490.885 253.347C505.378 247.796 515.525 242.933 521.327 238.756C527.152 234.64 529.672 228.822 528.887 221.302L567.011 206.807C568.752 226.668 563.908 241.825 552.48 252.276C541.135 262.766 524.137 272.348 501.484 281.023Z" fill="#306EF9"/>
<path d="M21.272 159.111L60.2713 42.7836L99.6501 55.9856L84.1659 102.172L119.064 113.871L134.548 67.6854L173.927 80.8874L134.928 197.214L95.5489 184.012L110.166 140.411L75.2683 128.711L60.6508 172.313L21.272 159.111Z" fill="#306EF9"/>
</svg>
